<svg width="120" height="120" viewBox="0 0 120 120" fill="none" xmlns="http://www.w3.org/2000/svg">
<path d="M78.7071 60.7071C79.0976 60.3166 79.0976 59.6834 78.7071 59.2929L72.3431 52.9289C71.9526 52.5384 71.3195 52.5384 70.9289 52.9289C70.5384 53.3195 70.5384 53.9526 70.9289 54.3431L76.5858 60L70.9289 65.6569C70.5384 66.0474 70.5384 66.6805 70.9289 67.0711C71.3195 67.4616 71.9526 67.4616 72.3431 67.0711L78.7071 60.7071ZM42 61H78V59H42V61Z" fill="white"/>
<g clip-path="url(#clip0_1_40)">
<path d="M38.1079 14.5209L37.1792 12.121L37.9473 11.8172C38.2367 10.3475 37.9228 8.42928 37.0056 6.06264L36.5109 4.76069L41.3324 2.89893L43.8842 9.50844L44.8433 9.13956L45.6418 11.5872L44.9474 11.8563L44.3138 10.2158L38.3336 12.5203L38.8153 14.2475L38.1079 14.5209ZM38.8761 11.4831L43.0423 9.87299L40.7856 4.00557L37.5958 5.23373L37.9473 6.17547C38.3132 7.11437 38.5865 8.08677 38.7632 9.07881C38.9385 9.86194 38.9767 10.6695 38.8761 11.4657V11.4831Z" fill="white"/>
<path d="M46.1193 9.6995L44.4875 1.97031L45.3554 1.78804L46.7095 8.20227L49.973 0.824604L50.8019 0.651001L52.4293 8.3802L51.5614 8.56247L50.2074 2.14824L46.9568 9.52591L46.1193 9.6995Z" fill="white"/>
<path d="M54.3648 8.13705L53.9308 0.251626L57.2898 0.0736922C57.661 0.023747 58.0384 0.0503507 58.3989 0.151859C58.7594 0.253366 59.0953 0.427621 59.3859 0.6639C59.5604 0.825227 59.7012 1.0195 59.8003 1.2355C59.8993 1.4515 59.9547 1.68497 59.9631 1.92245C59.9972 2.32021 59.9031 2.71843 59.6946 3.05889C59.4861 3.39934 59.1742 3.66415 58.8044 3.8146C59.9617 4.10392 60.5591 4.71584 60.5967 5.65035C60.6248 5.95663 60.5759 6.26506 60.4547 6.54772C60.3334 6.83038 60.1436 7.07832 59.9024 7.26909C59.3097 7.71245 58.5898 7.95291 57.8496 7.95478L54.3648 8.13705ZM55.0157 3.71913L57.3462 3.59761C57.816 3.59952 58.2734 3.44704 58.6482 3.16363C58.804 3.03232 58.9251 2.86464 59.0008 2.67542C59.0765 2.4862 59.1044 2.28125 59.0821 2.07868C59.0794 1.89654 59.032 1.71786 58.9443 1.55823C58.8565 1.3986 58.731 1.26291 58.5787 1.16299C58.1852 0.934596 57.7292 0.837316 57.2768 0.885234L54.8769 1.01109L55.0157 3.71913ZM55.2023 7.29079L57.8496 7.15192C58.351 7.15893 58.8417 7.007 59.2514 6.71793C59.4122 6.59057 59.5386 6.42495 59.6189 6.23618C59.6993 6.04742 59.7311 5.84154 59.7114 5.63733C59.7092 5.43778 59.6538 5.24244 59.5508 5.07153C59.4478 4.90061 59.3009 4.76033 59.1255 4.6652C58.6354 4.42658 58.0873 4.33322 57.5458 4.39614L55.0548 4.52634L55.2023 7.29079Z" fill="white"/>
<path d="M62.2242 7.85505L63.0271 0L63.9168 0.0868014L63.2484 6.59651L68.6081 0.555495L69.45 0.642296L68.6472 8.49735L67.7792 8.41055L68.4475 1.90084L63.0965 7.94185L62.2242 7.85505Z" fill="white"/>
<path d="M72.592 9.4217L74.3279 2.55612L71.7978 1.90081L72.0017 1.11096L78.0124 2.6516L77.8127 3.4371L75.2436 2.78179L73.5077 9.64737L72.592 9.4217Z" fill="white"/>
<path d="M77.3615 10.741L80.4341 3.46313L81.2543 3.81031L78.7025 9.85133L85.5985 5.64606L86.3796 5.97589L83.3071 13.2537L82.4955 12.9109L85.0473 6.86989L78.16 11.0795L77.3615 10.741Z" fill="white"/>
<path d="M88.0112 16.1831C87.5549 15.9157 87.1604 15.5547 86.8538 15.1238C86.5471 14.693 86.3351 14.202 86.2318 13.6834C86.0351 12.6289 86.2423 11.539 86.8124 10.6304C87.3825 9.72177 88.2737 9.06097 89.3088 8.7794C89.8218 8.64507 90.3574 8.62009 90.8807 8.70607C91.4041 8.79204 91.9035 8.98706 92.3466 9.27847C92.8486 9.57119 93.281 9.96952 93.6139 10.4459C93.9131 10.9181 94.1344 11.4353 94.2692 11.9778L93.4359 12.2035C93.3401 11.7491 93.1555 11.3181 92.8926 10.9353C92.6297 10.5524 92.2937 10.2254 91.904 9.97284C91.5614 9.74783 91.1744 9.59919 90.7693 9.53704C90.3642 9.47488 89.9504 9.50068 89.5561 9.61265C88.7388 9.85877 88.0397 10.3953 87.5904 11.1211C87.1412 11.8469 86.9729 12.7119 87.1172 13.5532C87.1892 13.9564 87.3469 14.3394 87.5798 14.6763C87.8126 15.0132 88.1151 15.2962 88.4668 15.5061C88.8592 15.7614 89.3043 15.9246 89.7688 15.9835C90.2597 16.0261 90.7543 15.9939 91.2356 15.888L91.4049 16.7256C90.8377 16.8672 90.2494 16.9039 89.669 16.8341C89.0754 16.741 88.5095 16.5188 88.0112 16.1831Z" fill="white"/>
<path d="M91.2704 18.1273L95.211 17.3331C94.821 16.8779 94.5842 16.3116 94.534 15.7143C94.5214 15.4283 94.5655 15.1426 94.6639 14.8738C94.7622 14.6049 94.9127 14.3581 95.1068 14.1477C95.2845 13.9173 95.5083 13.7265 95.7638 13.5875C96.0194 13.4486 96.3011 13.3644 96.5911 13.3405C97.0101 13.3287 97.4273 13.4018 97.8173 13.5554C98.2074 13.7091 98.5623 13.94 98.8608 14.2345L101.417 16.4304L96.2699 22.4237L95.5929 21.8421L97.5632 19.5464L95.8272 18.0709L92.0733 18.8303L91.2704 18.1273ZM96.2178 17.3938L98.0579 18.9735L100.228 16.4608L98.3877 14.8767C97.9972 14.4997 97.488 14.2697 96.9469 14.2258C96.7172 14.227 96.4904 14.2781 96.2824 14.3756C96.0744 14.4732 95.8902 14.6148 95.7424 14.7907C95.5945 14.9666 95.4868 15.1725 95.4265 15.3942C95.3662 15.6159 95.3549 15.848 95.3933 16.0745C95.5079 16.5962 95.7992 17.0622 96.2178 17.3938Z" fill="white"/>
<path d="M97.8366 26.4772L99.8937 24.9279L100.38 25.5789C101.867 25.4545 103.623 24.6285 105.648 23.1009L106.751 22.272L109.858 26.4035L104.19 30.6608L104.811 31.481L102.671 32.9219L102.237 32.3273L103.643 31.2684L99.7982 26.1387L98.2966 27.0718L97.8366 26.4772ZM100.983 26.3818L103.669 29.9534L108.686 26.1865L106.629 23.4524L105.809 24.0687C105.006 24.6774 104.145 25.2065 103.24 25.6483C102.536 26.0194 101.774 26.2674 100.987 26.3818H100.983Z" fill="white"/>
<path d="M104.346 32.2665L113.074 31.7804L113.464 32.5225L108.092 39.4054L107.658 38.5375L109.077 36.7495L107.08 32.9435L104.78 33.0823L104.346 32.2665ZM107.927 32.874L109.597 36.0638L112.332 32.5919L107.927 32.874Z" fill="white"/>
<path d="M108.391 40.4599C108.28 40.1274 108.233 39.777 108.252 39.427L108.994 39.3706C108.982 39.6089 109.021 39.847 109.107 40.0693C109.149 40.2019 109.215 40.3255 109.302 40.4339C109.451 40.567 109.63 40.6623 109.823 40.7116C110.146 40.8057 110.482 40.8396 110.817 40.8114C111.392 40.7633 111.962 40.6719 112.523 40.538C113.388 40.3421 114.243 40.1017 115.083 39.8176L116.446 39.3836L118.047 44.2355L110.548 46.7179L110.27 45.8499L116.997 43.6236L115.942 40.4295L115.126 40.6986C114.25 40.9972 113.357 41.2479 112.453 41.4494C111.842 41.5917 111.219 41.6774 110.591 41.7054C110.192 41.7245 109.793 41.6671 109.415 41.5362C109.152 41.455 108.916 41.3052 108.73 41.1022C108.579 40.9101 108.465 40.6925 108.391 40.4599Z" fill="white"/>
<path d="M110.947 48.7577L118.668 47.1302L118.85 47.9982L111.121 49.6256L110.947 48.7577Z" fill="white"/>
<path d="M110.448 63.4828L112.991 63.8647L112.87 64.6676C114.007 65.6484 115.829 66.3283 118.338 66.7073L119.7 66.9112L118.928 72.0192L111.919 70.9603L111.767 71.9758L109.242 71.4594L109.354 70.7216L111.09 70.9863L112.049 64.6502L110.313 64.2162L110.448 63.4828ZM112.722 65.6527L112.054 70.0706L118.255 71.008L118.767 67.6273L117.752 67.4754C116.756 67.3264 115.776 67.0823 114.827 66.7463C114.068 66.5079 113.356 66.1409 112.722 65.6614V65.6527Z" fill="white"/>
<path d="M110.665 72.8307L118.186 75.2437L117.917 76.1116L111.672 74.111L116.476 80.6207L116.216 81.4279L108.686 78.9759L108.955 78.1383L115.196 80.1433L110.422 73.6596L110.665 72.8307Z" fill="white"/>
<path d="M107.935 80.7769L114.988 84.3355L113.46 87.33C113.318 87.6768 113.107 87.991 112.84 88.2536C112.573 88.5163 112.255 88.7218 111.906 88.8576C111.679 88.9286 111.441 88.954 111.204 88.9324C110.967 88.9108 110.737 88.8426 110.526 88.7318C110.165 88.5634 109.866 88.2841 109.674 87.9345C109.482 87.5848 109.407 87.183 109.459 86.7875C108.651 87.6555 107.823 87.8595 106.976 87.4298C106.697 87.3015 106.453 87.106 106.268 86.8606C106.082 86.6152 105.96 86.3277 105.913 86.0237C105.825 85.288 105.977 84.5436 106.347 83.9016L107.935 80.7769ZM108.252 81.9226L107.059 84.2922C106.808 84.7284 106.702 85.2327 106.755 85.733C106.786 85.9361 106.868 86.1281 106.992 86.2918C107.116 86.4554 107.28 86.5855 107.467 86.6704C107.642 86.7667 107.839 86.815 108.039 86.8104C108.238 86.8058 108.433 86.7485 108.604 86.6443C109.051 86.3351 109.403 85.9066 109.619 85.4075L110.743 83.1812L108.252 81.9226ZM111.446 83.537L110.396 85.6201C110.165 86.0282 110.072 86.5002 110.131 86.9655C110.168 87.1667 110.253 87.356 110.38 87.5171C110.506 87.6781 110.669 87.806 110.856 87.8898C111.017 87.9753 111.197 88.0201 111.379 88.0201C111.561 88.0201 111.741 87.9753 111.902 87.8898C112.299 87.6627 112.611 87.3123 112.792 86.8917L113.877 84.7478L111.446 83.537Z" fill="white"/>
<path d="M104.286 87.7206L110.7 92.3295L110.179 93.0542L104.854 89.2308L107.428 96.8776L106.95 97.5719L100.519 92.9717L101.031 92.26L106.356 96.0834L103.778 88.4366L104.286 87.7206Z" fill="white"/>
<path d="M97.7671 95.9357L102.853 100.87L104.698 98.9649L105.284 99.5334L100.944 103.986L100.358 103.418L102.207 101.517L97.1205 96.5824L97.7671 95.9357Z" fill="white"/>
<path d="M94.2564 99.4162L99.0301 105.692L98.3227 106.234L94.3388 101.026L94.5775 109.098L93.9309 109.615L89.131 103.339L89.8297 102.806L93.8137 108.013L93.5707 99.9457L94.2564 99.4162Z" fill="white"/>
<path d="M84.2399 105.991C84.6965 105.73 85.2029 105.568 85.7262 105.515C86.2495 105.462 86.7781 105.519 87.2778 105.683C88.2937 106.032 89.1406 106.751 89.6497 107.697C90.1589 108.643 90.2929 109.746 90.0249 110.787C89.8886 111.302 89.6449 111.782 89.3099 112.197C88.9748 112.611 88.5559 112.95 88.0807 113.191C87.5756 113.479 87.0149 113.657 86.4359 113.712C85.8779 113.74 85.3191 113.676 84.7824 113.521L84.9994 112.687C85.8936 112.972 86.8642 112.891 87.6988 112.462C88.0633 112.275 88.3835 112.012 88.638 111.691C88.8925 111.369 89.0753 110.998 89.1743 110.6C89.3641 109.767 89.2443 108.893 88.837 108.141C88.4297 107.39 87.7629 106.812 86.961 106.516C86.5749 106.38 86.1642 106.328 85.7564 106.363C85.3485 106.398 84.9528 106.52 84.5958 106.72C84.1828 106.937 83.8228 107.242 83.5412 107.614C83.262 108.014 83.044 108.452 82.8946 108.916L82.0831 108.647C82.2442 108.091 82.4997 107.567 82.8382 107.098C83.22 106.632 83.6982 106.254 84.2399 105.991Z" fill="white"/>
<path d="M80.946 107.857L79.6787 111.672C80.2654 111.559 80.8726 111.634 81.4147 111.885C81.6694 112.016 81.8957 112.196 82.0804 112.415C82.2651 112.634 82.4047 112.887 82.4909 113.161C82.6034 113.43 82.6584 113.719 82.6524 114.01C82.6465 114.302 82.5796 114.589 82.4562 114.853C82.2583 115.222 81.9879 115.547 81.6613 115.809C81.3346 116.07 80.9585 116.264 80.5554 116.376L77.3787 117.509L74.7314 110.066L75.569 109.767L76.5845 112.618L78.7197 111.854L79.9174 108.222L80.946 107.857ZM79.1276 112.501L76.8405 113.317L77.9559 116.441L80.2386 115.63C80.7602 115.478 81.2129 115.15 81.5188 114.701C81.6324 114.501 81.7011 114.279 81.72 114.05C81.7389 113.821 81.7075 113.591 81.6282 113.375C81.5489 113.159 81.4234 112.964 81.2606 112.801C81.0978 112.639 80.9016 112.514 80.6856 112.436C80.1744 112.277 79.6237 112.3 79.1276 112.501Z" fill="white"/>
<path d="M70.4438 109.411L70.7606 111.967L69.9534 112.067C69.3198 113.424 69.1578 115.361 69.4674 117.878L69.6366 119.245L64.5113 119.879L63.6434 112.848L62.6235 112.974L62.4412 110.405L63.179 110.314L63.396 112.05L69.7581 111.264L69.6974 109.498L70.4438 109.411ZM68.9553 112.188L64.5243 112.74L65.2881 118.963L68.6819 118.529L68.556 117.513C68.4289 116.506 68.3998 115.489 68.4692 114.475C68.5022 113.691 68.6665 112.918 68.9553 112.188Z" fill="white"/>
<path d="M62.1765 112.18L58.2707 119.991L57.4765 119.965L54.1696 111.889L55.1287 111.924L55.9966 114.042L60.293 114.198L61.3042 112.145L62.1765 112.18ZM59.8721 114.983L56.2744 114.853L57.9235 118.946L59.8721 114.983Z" fill="white"/>
<path d="M53.067 111.633C53.4126 111.701 53.7423 111.834 54.0391 112.023L53.718 112.696C53.5164 112.567 53.2903 112.482 53.054 112.444C52.9178 112.418 52.7779 112.418 52.6417 112.444C52.451 112.503 52.2791 112.611 52.1426 112.757C51.8993 112.99 51.7021 113.267 51.5611 113.573C51.3194 114.095 51.1164 114.635 50.9535 115.187C50.697 116.044 50.4841 116.913 50.3156 117.791L50.0335 119.197L45.021 118.142L46.579 110.4L47.447 110.578L46.0452 117.522L49.3435 118.186L49.5127 117.344C49.6875 116.434 49.9121 115.534 50.1854 114.649C50.3662 114.051 50.6 113.47 50.8841 112.913C51.0664 112.557 51.3137 112.237 51.6132 111.971C51.8159 111.784 52.0644 111.654 52.3336 111.594C52.5783 111.561 52.8271 111.574 53.067 111.633Z" fill="white"/>
<path d="M44.5784 109.723L42.1654 117.244L41.2975 116.971L43.7321 109.463L44.5784 109.723Z" fill="white"/>
<path d="M32.0495 101.986L30.4524 104.004L29.8145 103.496C28.3997 103.993 26.9039 105.236 25.3271 107.224L24.4591 108.3L20.4101 105.088L24.8194 99.5378L24.0165 98.8999L25.722 96.9687L26.3036 97.4331L25.21 98.8088L30.2268 102.797L31.4462 101.517L32.0495 101.986ZM29.0116 102.853L25.5137 100.076L21.6079 104.989L24.2856 107.115L24.9235 106.308C25.5501 105.52 26.2505 104.793 27.0153 104.138C27.6093 103.604 28.2904 103.175 29.029 102.871L29.0116 102.853Z" fill="white"/>
<path d="M23.8342 97.524L18.0102 102.853L17.407 102.198L22.2415 97.7714L14.2216 98.7175L13.6444 98.0925L19.4684 92.7589L20.0629 93.4099L15.2284 97.8365L23.2397 96.8817L23.8342 97.524Z" fill="white"/>
<path d="M18.2924 91.2097L11.7089 95.5755L9.85143 92.772C9.6224 92.4774 9.45578 92.1392 9.36177 91.778C9.26775 91.4169 9.24831 91.0404 9.30461 90.6715C9.40678 90.2028 9.69088 89.7938 10.0945 89.5345C10.4195 89.303 10.81 89.1815 11.209 89.1877C11.608 89.1939 11.9945 89.3276 12.3121 89.5692C11.9707 88.4409 12.1949 87.6149 12.9848 87.0912C13.2331 86.9134 13.5215 86.7998 13.8244 86.7605C14.1273 86.7211 14.4351 86.7572 14.7207 86.8655C15.404 87.1531 15.9774 87.652 16.3568 88.289L18.2924 91.2097ZM14.1565 92.8979L12.8546 90.9536C12.6179 90.5485 12.2529 90.234 11.8174 90.0596C11.6249 89.9909 11.4184 89.9708 11.2162 90.0011C11.0141 90.0314 10.8225 90.1111 10.6586 90.2332C10.5023 90.3271 10.3717 90.4583 10.2785 90.6151C10.1854 90.7719 10.1326 90.9493 10.1248 91.1316C10.1289 91.5897 10.2811 92.0343 10.5588 92.3988L11.9085 94.4038L14.1565 92.8979ZM17.138 90.9233L15.6711 88.7099C15.4162 88.2771 15.0301 87.9366 14.5688 87.7378C14.3781 87.6631 14.1716 87.6375 13.9684 87.6633C13.7652 87.689 13.5718 87.7654 13.4057 87.8854C13.2345 87.9893 13.0939 88.1369 12.9986 88.3131C12.9032 88.4893 12.8565 88.6877 12.8633 88.8879C12.9094 89.4309 13.108 89.9499 13.4361 90.3851L14.8162 92.4639L17.138 90.9233Z" fill="white"/>
<path d="M14.0784 84.5958L6.90034 87.8897L6.52713 87.0781L12.49 84.3484L4.53081 82.7904L4.17929 82.0223L11.3617 78.7283L11.7262 79.5312L5.76766 82.2609L13.6878 83.8059L14.0784 84.5958Z" fill="white"/>
<path d="M10.1726 74.8704L3.36343 76.8363L4.09686 79.3838L3.3157 79.6094L1.57977 73.6465L2.36093 73.4426L3.09436 75.99L9.90352 74.0284L10.1726 74.8704Z" fill="white"/>
<path d="M8.87057 70.0879L1.05892 71.1207L0.941753 70.2528L7.45146 69.3848L0.33417 65.5701L0.221344 64.7325L8.05469 63.6953L8.16753 64.5633L1.65782 65.4312L8.7751 69.2373L8.87057 70.0879Z" fill="white"/>
<path d="M8.16748 58.1359C8.16926 58.665 8.05878 59.1885 7.84333 59.6718C7.62788 60.155 7.31236 60.5871 6.91761 60.9394C6.11024 61.6484 5.0651 62.0265 3.99103 61.9984C2.91697 61.9702 1.89308 61.5378 1.12396 60.7876C0.744678 60.4132 0.448547 59.963 0.254877 59.4665C0.0612078 58.97 -0.0256509 58.4382 -4.38821e-05 57.9059C-0.000542112 57.3236 0.123762 56.7479 0.364498 56.2177C0.618102 55.7203 0.950821 55.2674 1.34964 54.8767L1.96589 55.4799C1.27614 56.116 0.865858 56.999 0.824517 57.9363C0.802976 58.3445 0.869319 58.7525 1.01906 59.1329C1.1688 59.5132 1.39845 59.857 1.69248 60.1409C2.32064 60.7194 3.13792 61.0495 3.99166 61.0695C4.8454 61.0894 5.67721 60.7979 6.33173 60.2494C6.64433 59.981 6.89504 59.648 7.0666 59.2734C7.23817 58.8988 7.32652 58.4915 7.32555 58.0795C7.34676 57.6138 7.26218 57.1494 7.07818 56.7211C6.86632 56.2757 6.5867 55.8658 6.24928 55.506L6.8829 54.9331C7.28908 55.346 7.61828 55.828 7.85501 56.3566C8.08791 56.9198 8.19457 57.5271 8.16748 58.1359Z" fill="white"/>
<path d="M8.17625 54.3475L5.48991 51.3574C5.2994 51.9252 4.93308 52.4177 4.44401 52.7635C4.20507 52.9218 3.93663 53.0304 3.65476 53.0826C3.37289 53.1348 3.08338 53.1296 2.80357 53.0673C2.5142 53.0317 2.23544 52.9361 1.98511 52.7866C1.73478 52.6372 1.51838 52.4371 1.34974 52.1993C1.12753 51.8449 0.979159 51.4493 0.913535 51.0361C0.847911 50.623 0.866382 50.2009 0.967835 49.7951L1.55804 46.4751L9.33498 47.8595L9.17874 48.7275L6.20164 48.198L5.80237 50.4287L8.3672 53.2712L8.17625 54.3475ZM5.02989 50.4417L5.46387 48.0504L2.20034 47.4689L1.76636 49.8558C1.64034 50.3848 1.70009 50.941 1.9356 51.4312C2.04674 51.632 2.20297 51.8044 2.39198 51.9346C2.58099 52.0649 2.79764 52.1496 3.0249 52.182C3.25455 52.2312 3.49267 52.2246 3.71923 52.1626C3.94579 52.1007 4.15417 51.9853 4.32684 51.8261C4.70928 51.4668 4.95736 50.9875 5.02989 50.4677V50.4417Z" fill="white"/>
<path d="M12.0256 44.457L9.65175 43.4631L9.96422 42.7167C9.09626 41.4871 7.49343 40.3862 5.15572 39.4141L3.88416 38.8846L5.87613 34.1108L12.4162 36.8363L12.8111 35.8902L15.1329 37.0055L14.8465 37.6912L13.2104 37.0185L10.7454 42.9337L12.3077 43.7582L12.0256 44.457ZM10.3505 41.788L12.0864 37.6651L6.26671 35.2522L4.96476 38.4073L5.91084 38.8022C6.84254 39.1886 7.73487 39.6638 8.57549 40.2213C9.25211 40.6385 9.85242 41.1684 10.3505 41.788Z" fill="white"/>
<path d="M13.7225 35.9033L8.87061 28.6385L9.30459 27.9311L17.9842 29.0811L17.4764 29.897L15.2154 29.5759L12.9413 33.2256L14.2173 35.1265L13.7225 35.9033ZM12.4206 32.5053L14.3214 29.4674L9.95556 28.8598L12.4206 32.5053Z" fill="white"/>
<path d="M18.7393 28.2824C18.5086 28.5472 18.2304 28.7665 17.919 28.9291L17.4851 28.3171C17.6948 28.211 17.8809 28.0634 18.0319 27.8832C18.1247 27.7807 18.1969 27.6614 18.2445 27.5316C18.2866 27.3359 18.2776 27.1327 18.2185 26.9414C18.1319 26.6132 17.9847 26.3041 17.7845 26.0301C17.4511 25.5602 17.0827 25.1163 16.6822 24.7021C16.0755 24.0556 15.4352 23.4413 14.764 22.862L13.6834 21.9159L17.0554 18.0709L22.9966 23.2786L22.4064 23.947L17.1162 19.26L14.8855 21.7988L15.5321 22.3629C16.2344 22.9689 16.9037 23.6121 17.5371 24.2898C17.9672 24.7451 18.3564 25.2374 18.7002 25.761C18.9122 26.0983 19.0594 26.4721 19.1342 26.8633C19.1946 27.1319 19.1841 27.4115 19.1038 27.6749C19.019 27.8973 18.8956 28.1029 18.7393 28.2824Z" fill="white"/>
<path d="M24.6067 21.8595L19.2861 16.0311L19.9458 15.4323L25.2751 21.2563L24.6067 21.8595Z" fill="white"/>
</g>
<defs>
<clipPath id="clip0_1_40">
<rect width="119.696" height="120" fill="white"/>
</clipPath>
</defs>
</svg>
